Coordinates
version=1
nRows=16
nColumns=63
inDegrees=yes

Units are S.I. units (second, meters, Newtons, ...)
If the header above contains a line with 'inDegrees', this indicates whether rotational values are in degrees (yes) or radians (no).

endheader
time	pelvis_tilt	pelvis_list	pelvis_rotation	pelvis_tx	pelvis_ty	pelvis_tz	hip_flexion_r	hip_adduction_r	hip_rotation_r	knee_angle_r	knee_angle_r_beta	ankle_angle_r	subtalar_angle_r	mtp_angle_r	hip_flexion_l	hip_adduction_l	hip_rotation_l	knee_angle_l	knee_angle_l_beta	ankle_angle_l	subtalar_angle_l	mtp_angle_l	L5_S1_Flex_Ext	L5_S1_Lat_Bending	L5_S1_axial_rotation	L4_L5_Flex_Ext	L4_L5_Lat_Bending	L4_L5_axial_rotation	L3_L4_Flex_Ext	L3_L4_Lat_Bending	L3_L4_axial_rotation	L2_L3_Flex_Ext	L2_L3_Lat_Bending	L2_L3_axial_rotation	L1_L2_Flex_Ext	L1_L2_Lat_Bending	L1_L2_axial_rotation	L1_T12_Flex_Ext	L1_T12_Lat_Bending	L1_T12_axial_rotation	Abs_r3	Abs_r2	Abs_r1	Abs_t1	Abs_t2	neck_flexion	neck_bending	neck_rotation	arm_flex_r	arm_add_r	arm_rot_r	elbow_flex_r	pro_sup_r	wrist_flex_r	wrist_dev_r	arm_flex_l	arm_add_l	arm_rot_l	elbow_flex_l	pro_sup_l	wrist_flex_l	wrist_dev_l
4.230769	0.948043	-2.778754	101.998634	0.173722	0.493246	0.967547	-1.381374	3.011054	-19.519081	8.554330	0.149301	42.753418	16.329370	0.000000	1.550114	0.084799	-0.626504	12.730237	0.222185	43.525501	6.511498	0.000000	-0.026479	0.104005	-1.171893	-0.049174	0.138327	-1.245136	-0.043502	0.252878	-1.245136	-0.030263	0.252878	-1.025406	-0.024588	0.212088	-0.952163	-0.015130	0.161104	-0.878920	-0.189137	1.176529	-6.517717	0.000000	0.000000	22.637116	-0.221013	5.726608	-10.664372	-15.865521	95.052148	44.999896	1.814123	22.802972	-25.169671	-31.012157	-9.508370	10.582978	70.167678	45.597958	56.879092	-6.101093
4.250000	0.939520	-2.931700	101.977762	0.174129	0.492321	0.966783	-1.255184	2.994930	-19.550137	8.585265	0.149841	42.953952	16.422579	0.000000	1.688669	0.051036	-0.932904	12.714545	0.221911	43.849362	6.927097	0.000000	-0.009589	0.067787	-1.119849	-0.017807	0.090157	-1.189839	-0.015753	0.164818	-1.189839	-0.010959	0.164818	-0.979868	-0.008904	0.138232	-0.909877	-0.005479	0.105002	-0.839887	-0.068490	0.766822	-6.228263	0.000000	0.000000	22.688416	-0.932228	4.863702	-11.637920	-15.931581	91.753002	45.443234	1.907532	23.204250	-21.837148	-30.760669	-10.083635	11.712093	69.664863	45.339068	58.601022	-8.485795
4.269231	0.887997	-3.085991	101.934037	0.174703	0.491379	0.966020	-1.127520	2.950612	-19.431309	8.613540	0.150335	43.158415	16.377225	0.000000	1.816505	0.052077	-1.259124	12.688302	0.221453	44.147037	7.353740	0.000000	0.006082	0.023723	-1.044074	0.011295	0.031552	-1.109328	0.009992	0.057681	-1.109328	0.006951	0.057681	-0.913565	0.005648	0.048376	-0.848310	0.003475	0.036747	-0.783055	0.043442	0.268362	-5.806825	0.000000	0.000000	22.645575	-1.620016	3.807261	-12.819313	-15.978004	87.549904	46.381635	1.948630	22.503753	-17.535161	-30.440824	-10.767478	12.770413	69.278933	45.028616	60.323904	-10.114526
4.288462	0.804107	-3.241936	101.835045	0.175388	0.490419	0.965336	-0.972715	2.869954	-19.211194	8.678771	0.151473	43.385805	16.279322	0.000000	1.939152	0.090325	-1.560175	12.659942	0.220958	44.408811	7.705732	0.000000	0.020256	-0.023620	-0.941573	0.037618	-0.031415	-1.000421	0.033279	-0.057430	-1.000421	0.023151	-0.057430	-0.823876	0.018810	-0.048166	-0.765028	0.011574	-0.036587	-0.706180	0.144687	-0.267194	-5.236747	0.000000	0.000000	22.525041	-2.324434	2.643390	-14.231327	-16.026722	82.482999	47.896824	1.928203	20.201766	-12.439928	-30.075933	-11.509809	13.767135	69.041213	44.516608	61.881666	-10.952385
4.307692	0.699530	-3.397738	101.690236	0.176182	0.489458	0.964781	-0.790820	2.765626	-18.888001	8.776451	0.153178	43.635919	16.115917	0.000000	2.069800	0.151256	-1.867930	12.652160	0.220822	44.629061	7.994246	0.000000	0.032652	-0.072861	-0.824612	0.060638	-0.096905	-0.876150	0.053644	-0.177154	-0.876150	0.037318	-0.177154	-0.721536	0.030320	-0.148578	-0.669997	0.018657	-0.112862	-0.618459	0.233229	-0.824217	-4.586246	0.000000	0.000000	22.354513	-2.995286	1.373403	-15.737253	-16.091295	76.939557	49.692411	1.852339	17.193376	-6.608251	-29.702698	-12.272852	14.690725	68.958423	43.671417	63.268044	-11.068938
4.326923	0.569463	-3.538763	101.505927	0.177060	0.488557	0.964414	-0.605686	2.637025	-18.475172	8.884161	0.155058	43.882368	15.894093	0.000000	2.185611	0.241250	-2.155874	12.648611	0.220760	44.793589	8.200265	0.000000	0.040768	-0.122487	-0.702229	0.075711	-0.162908	-0.746118	0.066978	-0.297816	-0.746118	0.046594	-0.297816	-0.614450	0.037857	-0.249777	-0.570561	0.023295	-0.189733	-0.526672	0.291204	-1.385603	-3.905587	0.000000	0.000000	22.144084	-3.608274	0.100649	-17.303834	-16.081005	70.970558	51.448377	1.711903	13.962785	0.317417	-29.347569	-13.017887	15.461782	69.045047	42.868316	64.337920	-10.701559
4.346154	0.434019	-3.664885	101.276196	0.177947	0.487724	0.964279	-0.395007	2.490524	-18.036587	9.040004	0.157778	44.133455	15.678276	0.000000	2.294918	0.344884	-2.438477	12.660919	0.220975	44.912136	8.308975	0.000000	0.045959	-0.167783	-0.577967	0.085350	-0.223152	-0.614090	0.075505	-0.407948	-0.614090	0.052526	-0.407948	-0.505721	0.042677	-0.342144	-0.469598	0.026261	-0.259896	-0.433475	0.328278	-1.897999	-3.214478	0.000000	0.000000	21.906988	-4.154320	-1.097905	-18.835352	-16.086991	65.094538	53.098902	1.563144	10.974067	7.416786	-29.046762	-13.658558	16.016306	69.309812	42.088911	65.021104	-9.802899
4.365385	0.306153	-3.771113	100.999350	0.178827	0.486996	0.964385	-0.169712	2.344337	-17.556526	9.224516	0.160998	44.361324	15.448313	0.000000	2.394240	0.448072	-2.724464	12.690970	0.221499	44.990376	8.316289	0.000000	0.048704	-0.206017	-0.459578	0.090448	-0.274003	-0.488301	0.080016	-0.500910	-0.488301	0.055664	-0.500910	-0.402131	0.045227	-0.420110	-0.373407	0.027829	-0.319121	-0.344683	0.347888	-2.330507	-2.556033	0.000000	0.000000	21.639263	-4.521627	-2.102365	-20.098789	-16.159696	60.055787	54.596983	1.440210	8.365115	13.688029	-28.828452	-14.151329	16.295409	69.704265	41.404412	65.347117	-8.486330
4.384615	0.191142	-3.859297	100.691687	0.179644	0.486425	0.964728	0.070250	2.201901	-17.056928	9.433961	0.164654	44.550113	15.215274	0.000000	2.486027	0.537533	-3.106342	12.737612	0.222313	45.025756	8.341600	0.000000	0.048831	-0.235740	-0.344545	0.090683	-0.313534	-0.366079	0.080224	-0.573178	-0.366079	0.055809	-0.573178	-0.301477	0.045344	-0.480720	-0.279943	0.027902	-0.365161	-0.258409	0.348793	-2.666735	-1.916255	0.000000	0.000000	21.374189	-4.766441	-2.996543	-21.155961	-16.240865	55.709310	55.837012	1.319961	6.218845	19.313139	-28.661475	-14.521011	16.391028	70.165611	40.792091	65.294548	-6.946510
4.403846	0.111909	-3.933620	100.365197	0.180314	0.486004	0.965270	0.319143	2.086600	-16.568772	9.648587	0.168400	44.683800	15.005817	0.000000	2.576564	0.604689	-3.467410	12.799520	0.223394	45.005229	8.258994	0.000000	0.047111	-0.252564	-0.243233	0.087491	-0.335910	-0.258435	0.077399	-0.614085	-0.258435	0.053844	-0.614085	-0.212829	0.043748	-0.515029	-0.197627	0.026919	-0.391222	-0.182425	0.336512	-2.857056	-1.352791	0.000000	0.000000	21.121656	-4.777691	-3.570355	-21.906955	-16.392560	52.398109	56.877280	1.253672	4.416210	23.739112	-28.540691	-14.732066	16.325065	70.579501	40.206950	65.073622	-5.336317
4.423077	0.066519	-3.998423	100.011071	0.180805	0.485753	0.966003	0.587658	1.991694	-16.078281	9.882824	0.172488	44.762176	14.816098	0.000000	2.662689	0.658036	-3.800282	12.864864	0.224534	44.901452	8.041523	0.000000	0.042998	-0.256696	-0.156494	0.079851	-0.341406	-0.166274	0.070641	-0.624131	-0.166274	0.049142	-0.624131	-0.136932	0.039928	-0.523454	-0.127151	0.024569	-0.397622	-0.117370	0.307128	-2.903796	-0.870371	0.000000	0.000000	20.896025	-4.581103	-3.871247	-22.338731	-16.602883	50.161718	57.676949	1.218936	2.991749	26.971679	-28.446283	-14.777688	16.148528	70.841306	40.057697	64.748998	-4.298787
4.442308	0.071375	-4.052156	99.650850	0.181064	0.485668	0.966864	0.853479	1.938677	-15.612521	10.102524	0.176322	44.777976	14.666035	0.000000	2.745074	0.678463	-4.108168	12.937216	0.225797	44.733168	7.735701	0.000000	0.036620	-0.245560	-0.089742	0.068008	-0.326594	-0.095351	0.060164	-0.597054	-0.095351	0.041854	-0.597054	-0.078524	0.034006	-0.500745	-0.072916	0.020925	-0.380372	-0.067307	0.261576	-2.777821	-0.499120	0.000000	0.000000	20.687245	-4.133657	-3.785992	-22.474216	-16.877627	49.012095	58.209975	1.248298	2.031799	28.871403	-28.335439	-14.682474	16.039408	70.880090	39.980065	64.497990	-3.811252
4.461538	0.125499	-4.095683	99.327809	0.181038	0.485741	0.967820	1.109689	1.927278	-15.210520	10.303001	0.179821	44.740875	14.549620	0.000000	2.824865	0.667950	-4.357754	13.012371	0.227109	44.510807	7.366687	0.000000	0.028841	-0.220476	-0.050537	0.053560	-0.293233	-0.053696	0.047382	-0.536065	-0.053696	0.032962	-0.536065	-0.044220	0.026782	-0.449595	-0.041061	0.016480	-0.341517	-0.037903	0.206007	-2.494069	-0.281072	0.000000	0.000000	20.483753	-3.517868	-3.453737	-22.302986	-17.209138	49.018537	58.450615	1.372167	1.612609	29.300300	-28.187227	-14.472082	16.070197	70.689777	39.983954	64.383489	-3.924624
4.480769	0.218539	-4.118811	99.037683	0.180746	0.485979	0.968843	1.342623	1.948318	-14.873408	10.487242	0.183037	44.663492	14.474096	0.000000	2.888232	0.634450	-4.555306	13.088892	0.228444	44.249317	6.940459	0.000000	0.017977	-0.182998	-0.035720	0.033385	-0.243387	-0.037953	0.029534	-0.444940	-0.037953	0.020546	-0.444940	-0.031255	0.016693	-0.373169	-0.029023	0.010272	-0.283463	-0.026790	0.128407	-2.070104	-0.198666	0.000000	0.000000	20.294753	-2.773049	-2.887301	-21.831753	-17.574819	50.181048	58.354840	1.579209	1.829655	28.170353	-27.998265	-14.142411	16.206177	70.277092	40.109803	64.414535	-4.579520
4.500000	0.349534	-4.131013	98.801593	0.180247	0.486343	0.969907	1.545243	2.013115	-14.589514	10.625839	0.185456	44.539835	14.414406	0.000000	2.946031	0.576760	-4.647996	13.161464	0.229711	43.961911	6.445537	0.000000	0.006738	-0.134583	-0.054782	0.012513	-0.178996	-0.058206	0.011070	-0.327226	-0.058206	0.007701	-0.327226	-0.047934	0.006257	-0.274442	-0.044510	0.003850	-0.208469	-0.041086	0.048128	-1.522432	-0.304680	0.000000	0.000000	20.096159	-1.816710	-1.946647	-21.088698	-17.988917	52.321472	57.962083	1.933066	2.752164	25.870327	-27.762310	-13.783712	16.620739	69.665608	40.230783	64.547320	-6.008351
4.519231	0.491351	-4.127238	98.591709	0.179597	0.486815	0.970991	1.722248	2.086620	-14.370041	10.752885	0.187673	44.405942	14.395664	0.000000	2.988819	0.515243	-4.724037	13.231552	0.230934	43.682905	5.952823	0.000000	-0.005396	-0.080219	-0.087505	-0.010021	-0.106692	-0.092974	-0.008865	-0.195045	-0.092974	-0.006167	-0.195045	-0.076567	-0.005011	-0.163583	-0.071098	-0.003083	-0.124260	-0.065629	-0.038544	-0.907457	-0.486676	0.000000	0.000000	19.884122	-0.832734	-0.920328	-20.091123	-18.428262	55.455553	57.261914	2.367906	4.509851	22.074499	-27.478371	-13.387737	17.111936	68.894129	40.590632	64.815814	-7.865211
